<?xml version="1.0" encoding="UTF-8" standalone="no"?>
<svg
   xmlns:dc="http://purl.org/dc/elements/1.1/"
   xmlns:cc="http://creativecommons.org/ns#"
   xmlns:rdf="http://www.w3.org/1999/02/22-rdf-syntax-ns#"
   xmlns:svg="http://www.w3.org/2000/svg"
   xmlns="http://www.w3.org/2000/svg"
   width="24"
   height="24"
   viewBox="0 0 6.3499998 6.3499998"
   version="1.1"
   id="svg8">
  <defs
     id="defs2" />
  <metadata
     id="metadata5">
    <rdf:RDF>
      <cc:Work
         rdf:about="">
        <dc:format>image/svg+xml</dc:format>
        <dc:type
           rdf:resource="http://purl.org/dc/dcmitype/StillImage" />
        <dc:title />
      </cc:Work>
    </rdf:RDF>
  </metadata>
  <path
     id="path2173-8"
     d="M 3.1738281,1.3222657 C 2.4623907,1.3232993 1.8638966,1.7663573 1.5566406,2.3945313 0.84588511,2.4140965 0.26365843,2.9898226 0.26367188,3.7050782 0.26365826,4.432579 0.86038977,5.0273575 1.5878906,5.0273438 H 3.1757813 4.7617189 C 5.4892196,5.0273575 6.0859513,4.432579 6.0859375,3.7050782 6.085951,2.9904702 5.504789,2.4151062 4.794922,2.3945313 4.4875624,1.7661973 3.8874183,1.323068 3.1757813,1.3222657 a 0.26460981,0.26460981 0 0 0 -0.00196,0 z m 0,0.5292969 h 0.00196 c 0.5618221,0.00137 1.0604246,0.3563222 1.2460938,0.8867187 a 0.26460981,0.26460981 0 0 0 0.2753908,0.1757813 c 0.022011,-0.00208 0.042345,-0.00367 0.064453,-0.00391 0.441511,-8.3e-6 0.7949302,0.353411 0.7949218,0.7949219 8.4e-6,0.4415108 -0.3534108,0.7929772 -0.7949218,0.7929688 H 3.1757813 1.5878906 C 1.1463797,4.4980554 0.7929605,4.146589 0.79296876,3.7050782 0.79296048,3.2641097 1.1451884,2.9110121 1.5859375,2.9101563 c 0.022906,1.723e-4 0.045554,0.00175 0.068359,0.00391 A 0.26460981,0.26460981 0 0 0 1.9277344,2.7382813 C 2.1133509,2.208035 2.6121657,1.8531129 3.1738281,1.8515626 Z"
     style="color:#000000;font-style:normal;font-variant:normal;font-weight:normal;font-stretch:normal;font-size:medium;line-height:normal;font-family:sans-serif;font-variant-ligatures:normal;font-variant-position:normal;font-variant-caps:normal;font-variant-numeric:normal;font-variant-alternates:normal;font-feature-settings:normal;text-indent:0;text-align:start;text-decoration:none;text-decoration-line:none;text-decoration-style:solid;text-decoration-color:#000000;letter-spacing:normal;word-spacing:normal;text-transform:none;writing-mode:lr-tb;direction:ltr;text-orientation:mixed;dominant-baseline:auto;baseline-shift:baseline;text-anchor:start;white-space:normal;shape-padding:0;clip-rule:nonzero;display:inline;overflow:visible;visibility:visible;opacity:1;isolation:auto;mix-blend-mode:normal;color-interpolation:sRGB;color-interpolation-filters:linearRGB;solid-color:#000000;solid-opacity:1;vector-effect:none;fill:#00001d;fill-opacity:1;fill-rule:nonzero;stroke:none;stroke-width:0.5291667;stroke-linecap:round;stroke-linejoin:round;stroke-miterlimit:4;stroke-dasharray:none;stroke-dashoffset:0;stroke-opacity:1;paint-order:markers fill stroke;color-rendering:auto;image-rendering:auto;shape-rendering:auto;text-rendering:auto;enable-background:accumulate" />
</svg>
