<svg id="Layer_1" data-name="Layer 1" xmlns="http://www.w3.org/2000/svg" viewBox="0 0 142 87.5"><defs><style>.cls-1{fill:#00aeef;}.cls-2{fill:#231f20;}</style></defs><title>logo-LoRa-color</title><polyline points="0 58.71 0 18.55 10.04 18.55 10.04 50.25 25.72 50.25 25.72 58.71 0 58.71"/><path d="M91.28,83.28V43.12h20.08q14.54,0,14.55,13.2a10.78,10.78,0,0,1-2.26,6.8,11.59,11.59,0,0,1-6,4l9.19,16.13H115.59l-7.89-14.44h-6.38V83.28h-10m10-32.71V61.39h9.19q5.37,0,5.36-5.41t-5.36-5.42Z" transform="translate(-24.56 -24.57)"/><path d="M157,61.17V77a18.41,18.41,0,0,0,.79,6.26h-8.12a13.07,13.07,0,0,1-.56-3.1H149A7.89,7.89,0,0,1,145.11,83,13.37,13.37,0,0,1,140,84.07a10.65,10.65,0,0,1-7.16-2.31,8.17,8.17,0,0,1-2.88-6.6,8.66,8.66,0,0,1,4.12-7.78q3.49-2.26,11.28-3.33l3.21-.45V61.11q0-3.22-4.17-3.21a4,4,0,0,0-4.62,4h-8.46q.28-9.42,12.36-9.42,6.59,0,9.75,1.8Q157,56.37,157,61.17m-8.46,9.59V68.67l-5.92,1.69q-4.22,1.19-4.23,3.89,0,3.38,4.12,3.38a5.69,5.69,0,0,0,4.36-1.77,7.16,7.16,0,0,0,1.66-5.1" transform="translate(-24.56 -24.57)"/><path d="M69.41,52.48q7.17,0,11.56,4.17t4.4,11.62q0,7.45-4.4,11.62T69.41,84.06q-7.17,0-11.56-4.17t-4.4-11.62q0-7.45,4.4-11.62t11.56-4.17m0,6.71a6.28,6.28,0,0,0-5.47,2.61,11,11,0,0,0-1.7,6.47,11,11,0,0,0,1.7,6.47,6.28,6.28,0,0,0,5.47,2.61q7.17,0,7.16-9.42a10.3,10.3,0,0,0-1.69-6.19,6.42,6.42,0,0,0-5.47-2.55" transform="translate(-24.56 -24.57)"/><path class="cls-1" d="M69.12,46.47A21.91,21.91,0,0,1,81,50l1.73-2.45A25,25,0,0,0,56,47.2l1.72,2.46a21.91,21.91,0,0,1,11.41-3.19" transform="translate(-24.56 -24.57)"/><path class="cls-1" d="M50.66,39.55l2.29,3.28a30.21,30.21,0,0,1,32.88.34l2.3-3.27a34.21,34.21,0,0,0-37.47-.35" transform="translate(-24.56 -24.57)"/><path class="cls-1" d="M69.12,29.57a38.78,38.78,0,0,1,21.64,6.57L93.65,32a43.9,43.9,0,0,0-48.48-.36L48,35.79a38.78,38.78,0,0,1,21.09-6.22" transform="translate(-24.56 -24.57)"/><path class="cls-1" d="M69.69,90.16a21.91,21.91,0,0,1-11.91-3.51l-1.73,2.46a25,25,0,0,0,26.76.33L81.1,87a21.92,21.92,0,0,1-11.41,3.19" transform="translate(-24.56 -24.57)"/><path class="cls-1" d="M88.16,97.09l-2.29-3.28A30.22,30.22,0,0,1,53,93.47l-2.3,3.27a34.2,34.2,0,0,0,37.47.35" transform="translate(-24.56 -24.57)"/><path class="cls-1" d="M69.69,107.07A38.79,38.79,0,0,1,48,100.49l-2.88,4.09a43.9,43.9,0,0,0,48.48.36l-2.86-4.1a38.78,38.78,0,0,1-21.09,6.22" transform="translate(-24.56 -24.57)"/><path class="cls-2" d="M162.88,51.62a3.77,3.77,0,0,1,1.81.48,3.38,3.38,0,0,1,1.38,1.36,3.7,3.7,0,0,1,0,3.68,3.42,3.42,0,0,1-1.36,1.37,3.71,3.71,0,0,1-3.67,0,3.44,3.44,0,0,1-1.36-1.37,3.69,3.69,0,0,1,0-3.68,3.4,3.4,0,0,1,1.38-1.36A3.77,3.77,0,0,1,162.88,51.62Zm0,.61a3.15,3.15,0,0,0-1.51.4,2.85,2.85,0,0,0-1.15,1.14,3.06,3.06,0,0,0,0,3.07A2.89,2.89,0,0,0,161.35,58a3.07,3.07,0,0,0,3.06,0,2.88,2.88,0,0,0,1.14-1.14,3.08,3.08,0,0,0,0-3.07,2.83,2.83,0,0,0-1.15-1.14A3.15,3.15,0,0,0,162.88,52.23Zm-1.62,5.11v-4h1.36a3.36,3.36,0,0,1,1,.11,1,1,0,0,1,.5.38,1,1,0,0,1,.19.58,1.06,1.06,0,0,1-.31.76,1.23,1.23,0,0,1-.82.36,1.08,1.08,0,0,1,.34.21,4.55,4.55,0,0,1,.59.79l.48.78h-.78l-.35-.62a3.19,3.19,0,0,0-.67-.92.82.82,0,0,0-.51-.14h-.38v1.68Zm.64-2.23h.78a1.25,1.25,0,0,0,.76-.17.57.57,0,0,0,.11-.75.58.58,0,0,0-.27-.21,2,2,0,0,0-.64-.07h-.73Z" transform="translate(-24.56 -24.57)"/></svg>