<?xml version="1.0" encoding="utf-8"?>
<!-- Generator: Adobe Illustrator 25.0.1, SVG Export Plug-In . SVG Version: 6.00 Build 0)  -->
<svg version="1.1" id="Calque_1" xmlns="http://www.w3.org/2000/svg" xmlns:xlink="http://www.w3.org/1999/xlink" x="0px" y="0px"
	 viewBox="0 0 1235 549" xml:space="preserve">
<style type="text/css">
	.st0{clip-path:url(#SVGID_2_);}
	.st1{clip-path:url(#SVGID_4_);}
	.st2{clip-path:url(#SVGID_6_);}
	.st3{clip-path:url(#SVGID_8_);}
	.st4{fill:#4D4D4D;}
	.st5{clip-path:url(#SVGID_10_);}
	.st6{clip-path:url(#SVGID_12_);}
	.st7{clip-path:url(#SVGID_14_);}
	.st8{clip-path:url(#SVGID_16_);}
	.st9{clip-path:url(#SVGID_18_);}
	.st10{clip-path:url(#SVGID_20_);}
	.st11{clip-path:url(#SVGID_22_);}
	.st12{clip-path:url(#SVGID_24_);}
	.st13{clip-path:url(#SVGID_26_);}
	.st14{clip-path:url(#SVGID_28_);}
	.st15{clip-path:url(#SVGID_30_);}
	.st16{clip-path:url(#SVGID_32_);}
	.st17{fill:#224478;}
	.st18{clip-path:url(#SVGID_34_);}
	.st19{clip-path:url(#SVGID_36_);}
	.st20{clip-path:url(#SVGID_38_);}
	.st21{clip-path:url(#SVGID_40_);}
	.st22{clip-path:url(#SVGID_42_);}
	.st23{clip-path:url(#SVGID_44_);}
	.st24{clip-path:url(#SVGID_46_);}
	.st25{clip-path:url(#SVGID_48_);}
	.st26{clip-path:url(#SVGID_50_);}
	.st27{clip-path:url(#SVGID_52_);}
	.st28{clip-path:url(#SVGID_54_);}
	.st29{clip-path:url(#SVGID_56_);}
	.st30{clip-path:url(#SVGID_58_);}
	.st31{clip-path:url(#SVGID_60_);}
	.st32{clip-path:url(#SVGID_62_);}
	.st33{fill:#C11F25;}
	.st34{clip-path:url(#SVGID_64_);}
	.st35{clip-path:url(#SVGID_66_);}
	.st36{clip-path:url(#SVGID_68_);}
	.st37{fill:#EF681C;}
	.st38{clip-path:url(#SVGID_70_);}
	.st39{clip-path:url(#SVGID_72_);}
	.st40{clip-path:url(#SVGID_74_);}
	.st41{clip-path:url(#SVGID_76_);}
	.st42{clip-path:url(#SVGID_78_);}
	.st43{clip-path:url(#SVGID_80_);}
	.st44{fill:#FFFFFF;}
	.st45{clip-path:url(#SVGID_82_);}
	.st46{clip-path:url(#SVGID_84_);}
	.st47{clip-path:url(#SVGID_86_);}
	.st48{clip-path:url(#SVGID_88_);}
	.st49{clip-path:url(#SVGID_90_);}
	.st50{clip-path:url(#SVGID_92_);}
	.st51{clip-path:url(#SVGID_94_);}
	.st52{clip-path:url(#SVGID_96_);}
	.st53{clip-path:url(#SVGID_98_);}
	.st54{clip-path:url(#SVGID_100_);}
	.st55{clip-path:url(#SVGID_102_);}
	.st56{clip-path:url(#SVGID_104_);}
	.st57{fill:none;stroke:#000000;stroke-miterlimit:8;}
	.st58{fill:none;stroke:#4D4D4D;stroke-width:0.3333;stroke-miterlimit:8;stroke-dasharray:1.3333,1;}
</style>
<g>
	<defs>
		<rect id="SVGID_1_" x="-33" y="-107.1" width="1280" height="720"/>
	</defs>
	<clipPath id="SVGID_2_">
		<use xlink:href="#SVGID_1_"  style="overflow:visible;"/>
	</clipPath>
	<g class="st0">
		<path d="M10.5,513.9h1205.3v1H10.5V513.9z M1214.4,510.4l8,4l-8,4V510.4z"/>
		<g>
			<defs>
				<rect id="SVGID_3_" x="364" y="345.9" width="166" height="167"/>
			</defs>
			<clipPath id="SVGID_4_">
				<use xlink:href="#SVGID_3_"  style="overflow:visible;"/>
			</clipPath>
			<g class="st1">
				<g>
					<defs>
						<rect id="SVGID_5_" x="364" y="345.9" width="166" height="167"/>
					</defs>
					<clipPath id="SVGID_6_">
						<use xlink:href="#SVGID_5_"  style="overflow:visible;"/>
					</clipPath>
					<g class="st2">
						<g>
							<defs>
								<rect id="SVGID_7_" x="364" y="345.9" width="166" height="167"/>
							</defs>
							<clipPath id="SVGID_8_">
								<use xlink:href="#SVGID_7_"  style="overflow:visible;"/>
							</clipPath>
							<g class="st3">
								<path class="st4" d="M495.4,422.4c0,3.8-3.1,7-6.9,7s-6.9-3.1-6.9-7v-7l-3.5-34.8H492l3.5,34.8V422.4z M467.8,422.4
									c0,3.8-3.1,7-6.9,7c-3.8,0-6.9-3.1-6.9-7v-7l-1.7-34.8H466l1.7,34.8V422.4z M440.1,415.5v7c0,3.8-3.1,7-6.9,7
									c-3.8,0-6.9-3.1-6.9-7v-7l1.7-34.8h13.8L440.1,415.5z M433.2,471.1h-27.7v-27.8h27.7V471.1z M398.6,422.4v-7l3.5-34.8h13.8
									l-3.5,34.8v7c0,3.8-3.1,7-6.9,7S398.6,426.3,398.6,422.4z M502.3,370.2H391.7l-6.9,45.2v7c0,3.8,3.1,7,6.9,7v59.1h58.8
									v-45.2h38v45.2h13.8v-59.1c3.8,0,6.9-3.1,6.9-7v-7L502.3,370.2z"/>
							</g>
						</g>
					</g>
				</g>
			</g>
		</g>
		<g>
			<defs>
				<rect id="SVGID_9_" x="699" y="185.9" width="166" height="167"/>
			</defs>
			<clipPath id="SVGID_10_">
				<use xlink:href="#SVGID_9_"  style="overflow:visible;"/>
			</clipPath>
			<g class="st5">
				<g>
					<defs>
						<rect id="SVGID_11_" x="699" y="185.9" width="166" height="167"/>
					</defs>
					<clipPath id="SVGID_12_">
						<use xlink:href="#SVGID_11_"  style="overflow:visible;"/>
					</clipPath>
					<g class="st6">
						<g>
							<defs>
								<rect id="SVGID_13_" x="699" y="185.9" width="166" height="167"/>
							</defs>
							<clipPath id="SVGID_14_">
								<use xlink:href="#SVGID_13_"  style="overflow:visible;"/>
							</clipPath>
							<g class="st7">
								<path class="st4" d="M718,295.5v40h39.8v-40H718z M730.1,307.7h-6.9v-7h6.9V307.7z"/>
								<path class="st4" d="M763,295.5v40h39.8v-40H763z M775.1,307.7h-6.9v-7h6.9V307.7z"/>
								<path class="st4" d="M740.5,250.2v40h39.8v-40H740.5z M752.6,262.4h-6.9v-7h6.9V262.4z"/>
								<path class="st4" d="M785.5,250.2v40h39.8v-40H785.5z M797.6,262.4h-6.9v-7h6.9V262.4z"/>
								<path class="st4" d="M763,205v40h39.8v-40H763z M775.1,217.2h-6.9v-7h6.9V217.2z"/>
								<path class="st4" d="M807.9,295.5v40h38v-40H807.9z M820,307.7h-6.9v-7h6.9V307.7z"/>
							</g>
						</g>
					</g>
				</g>
			</g>
		</g>
		<g>
			<defs>
				<rect id="SVGID_15_" x="699" y="345.9" width="166" height="167"/>
			</defs>
			<clipPath id="SVGID_16_">
				<use xlink:href="#SVGID_15_"  style="overflow:visible;"/>
			</clipPath>
			<g class="st8">
				<g>
					<defs>
						<rect id="SVGID_17_" x="699" y="345.9" width="166" height="167"/>
					</defs>
					<clipPath id="SVGID_18_">
						<use xlink:href="#SVGID_17_"  style="overflow:visible;"/>
					</clipPath>
					<g class="st9">
						<g>
							<defs>
								<rect id="SVGID_19_" x="699" y="345.9" width="166" height="167"/>
							</defs>
							<clipPath id="SVGID_20_">
								<use xlink:href="#SVGID_19_"  style="overflow:visible;"/>
							</clipPath>
							<g class="st10">
								<path class="st4" d="M830.4,422.4c0,3.8-3.1,7-6.9,7s-6.9-3.1-6.9-7v-7l-3.5-34.8H827l3.5,34.8V422.4z M802.8,422.4
									c0,3.8-3.1,7-6.9,7c-3.8,0-6.9-3.1-6.9-7v-7l-1.7-34.8H801l1.7,34.8V422.4z M775.1,415.5v7c0,3.8-3.1,7-6.9,7
									c-3.8,0-6.9-3.1-6.9-7v-7l1.7-34.8h13.8L775.1,415.5z M768.2,471.1h-27.7v-27.8h27.7V471.1z M733.6,422.4v-7l3.5-34.8h13.8
									l-3.5,34.8v7c0,3.8-3.1,7-6.9,7S733.6,426.3,733.6,422.4z M837.3,370.2H726.7l-6.9,45.2v7c0,3.8,3.1,7,6.9,7v59.1h58.8
									v-45.2h38v45.2h13.8v-59.1c3.8,0,6.9-3.1,6.9-7v-7L837.3,370.2z"/>
							</g>
						</g>
					</g>
				</g>
			</g>
		</g>
		<g>
			<defs>
				<rect id="SVGID_21_" x="1024" y="346.9" width="165" height="167"/>
			</defs>
			<clipPath id="SVGID_22_">
				<use xlink:href="#SVGID_21_"  style="overflow:visible;"/>
			</clipPath>
			<g class="st11">
				<g>
					<defs>
						<rect id="SVGID_23_" x="1024" y="346.9" width="165" height="167"/>
					</defs>
					<clipPath id="SVGID_24_">
						<use xlink:href="#SVGID_23_"  style="overflow:visible;"/>
					</clipPath>
					<g class="st12">
						<g>
							<defs>
								<rect id="SVGID_25_" x="1024" y="346.9" width="165" height="167"/>
							</defs>
							<clipPath id="SVGID_26_">
								<use xlink:href="#SVGID_25_"  style="overflow:visible;"/>
							</clipPath>
							<g class="st13">
								<path class="st4" d="M1154.6,423.4c0,3.8-3.1,7-6.9,7s-6.9-3.1-6.9-7v-7l-3.4-34.8h13.8l3.4,34.8V423.4z M1127.1,423.4
									c0,3.8-3.1,7-6.9,7c-3.8,0-6.9-3.1-6.9-7v-7l-1.7-34.8h13.7l1.7,34.8V423.4z M1099.6,416.5v7c0,3.8-3.1,7-6.9,7
									s-6.9-3.1-6.9-7v-7l1.7-34.8h13.8L1099.6,416.5z M1092.8,472.1h-27.5v-27.8h27.5V472.1z M1058.4,423.4v-7l3.4-34.8h13.8
									l-3.4,34.8v7c0,3.8-3.1,7-6.9,7S1058.4,427.3,1058.4,423.4z M1161.5,371.2h-110l-6.9,45.2v7c0,3.8,3.1,7,6.9,7v59.1h58.4
									v-45.2h37.8v45.2h13.8v-59.1c3.8,0,6.9-3.1,6.9-7v-7L1161.5,371.2z"/>
							</g>
						</g>
					</g>
				</g>
			</g>
		</g>
		<g>
			<defs>
				<rect id="SVGID_27_" x="275" y="217.9" width="44" height="45"/>
			</defs>
			<clipPath id="SVGID_28_">
				<use xlink:href="#SVGID_27_"  style="overflow:visible;"/>
			</clipPath>
			<g class="st14">
				<g>
					<defs>
						<rect id="SVGID_29_" x="275" y="217.9" width="44" height="45"/>
					</defs>
					<clipPath id="SVGID_30_">
						<use xlink:href="#SVGID_29_"  style="overflow:visible;"/>
					</clipPath>
					<g class="st15">
						<g>
							<defs>
								<rect id="SVGID_31_" x="275" y="217.9" width="44" height="45"/>
							</defs>
							<clipPath id="SVGID_32_">
								<use xlink:href="#SVGID_31_"  style="overflow:visible;"/>
							</clipPath>
							<g class="st16">
								<path class="st17" d="M308.6,231.8c-0.8-6.6-6.6-11.3-13-10.5c-5.9,0.7-10.3,5.8-10.3,11.8h5.5c0-3.5,2.8-6.3,6.2-6.3
									c3.4,0,6.2,2.8,6.2,6.3c0,2.2-1.1,4.2-2.9,5.4c-3.7,2.3-6,6.5-6,10.9h5.5c0-2.5,1.3-4.9,3.5-6.2
									C307,240.8,309.1,236.3,308.6,231.8z"/>
								<path class="st17" d="M299.5,253.7L299.5,253.7c-1.3-1.3-3.4-1.3-4.8,0c0,0,0,0,0,0c-0.3,0.3-0.6,0.7-0.7,1.1
									c-0.2,0.4-0.3,0.9-0.3,1.3c0,0.5,0.1,0.9,0.3,1.3c0.3,0.8,1,1.5,1.8,1.8c0.4,0.2,0.9,0.3,1.3,0.3c0.4,0,0.9-0.1,1.3-0.3
									c0.8-0.4,1.4-1,1.8-1.8c0.2-0.4,0.3-0.9,0.3-1.3c0-0.5-0.1-0.9-0.3-1.3C300,254.4,299.8,254,299.5,253.7z"/>
							</g>
						</g>
					</g>
				</g>
			</g>
		</g>
		<g>
			<defs>
				<rect id="SVGID_33_" x="-9" y="185.9" width="165" height="167"/>
			</defs>
			<clipPath id="SVGID_34_">
				<use xlink:href="#SVGID_33_"  style="overflow:visible;"/>
			</clipPath>
			<g class="st18">
				<g>
					<defs>
						<rect id="SVGID_35_" x="-9" y="185.9" width="165" height="167"/>
					</defs>
					<clipPath id="SVGID_36_">
						<use xlink:href="#SVGID_35_"  style="overflow:visible;"/>
					</clipPath>
					<g class="st19">
						<g>
							<defs>
								<rect id="SVGID_37_" x="-9" y="185.9" width="165" height="167"/>
							</defs>
							<clipPath id="SVGID_38_">
								<use xlink:href="#SVGID_37_"  style="overflow:visible;"/>
							</clipPath>
							<g class="st20">
								<path class="st4" d="M9.9,295.5v40h39.5v-40H9.9z M21.9,307.7h-6.9v-7h6.9V307.7z"/>
								<path class="st4" d="M54.6,295.5v40h39.5v-40H54.6z M66.6,307.7h-6.9v-7h6.9V307.7z"/>
								<path class="st4" d="M32.3,250.2v40h39.5v-40H32.3z M44.3,262.4h-6.9v-7h6.9V262.4z"/>
								<path class="st4" d="M76.9,250.2v40h39.5v-40H76.9z M89,262.4h-6.9v-7H89V262.4z"/>
								<path class="st4" d="M54.6,205v40h39.5v-40H54.6z M66.6,217.2h-6.9v-7h6.9V217.2z"/>
								<path class="st4" d="M99.3,295.5v40h37.8v-40H99.3z M111.3,307.7h-6.9v-7h6.9V307.7z"/>
							</g>
						</g>
					</g>
				</g>
			</g>
		</g>
		<g>
			<defs>
				<rect id="SVGID_39_" x="35" y="185.9" width="166" height="167"/>
			</defs>
			<clipPath id="SVGID_40_">
				<use xlink:href="#SVGID_39_"  style="overflow:visible;"/>
			</clipPath>
			<g class="st21">
				<g>
					<defs>
						<rect id="SVGID_41_" x="35" y="185.9" width="166" height="167"/>
					</defs>
					<clipPath id="SVGID_42_">
						<use xlink:href="#SVGID_41_"  style="overflow:visible;"/>
					</clipPath>
					<g class="st22">
						<g>
							<defs>
								<rect id="SVGID_43_" x="35" y="185.9" width="166" height="167"/>
							</defs>
							<clipPath id="SVGID_44_">
								<use xlink:href="#SVGID_43_"  style="overflow:visible;"/>
							</clipPath>
							<g class="st23">
								<path class="st17" d="M54,295.5v40h39.8v-40H54z M66.1,307.7h-6.9v-7h6.9V307.7z"/>
								<path class="st17" d="M99,295.5v40h39.8v-40H99z M111.1,307.7h-6.9v-7h6.9V307.7z"/>
								<path class="st17" d="M76.5,250.2v40h39.8v-40H76.5z M88.6,262.4h-6.9v-7h6.9V262.4z"/>
								<path class="st17" d="M121.5,250.2v40h39.8v-40H121.5z M133.6,262.4h-6.9v-7h6.9V262.4z"/>
								<path class="st17" d="M99,205v40h39.8v-40H99z M111.1,217.2h-6.9v-7h6.9V217.2z"/>
								<path class="st17" d="M143.9,295.5v40h38v-40H143.9z M156,307.7h-6.9v-7h6.9V307.7z"/>
							</g>
						</g>
					</g>
				</g>
			</g>
		</g>
		<g>
			<defs>
				<rect id="SVGID_45_" x="80" y="185.9" width="166" height="167"/>
			</defs>
			<clipPath id="SVGID_46_">
				<use xlink:href="#SVGID_45_"  style="overflow:visible;"/>
			</clipPath>
			<g class="st24">
				<g>
					<defs>
						<rect id="SVGID_47_" x="80" y="185.9" width="166" height="167"/>
					</defs>
					<clipPath id="SVGID_48_">
						<use xlink:href="#SVGID_47_"  style="overflow:visible;"/>
					</clipPath>
					<g class="st25">
						<g>
							<defs>
								<rect id="SVGID_49_" x="80" y="185.9" width="166" height="167"/>
							</defs>
							<clipPath id="SVGID_50_">
								<use xlink:href="#SVGID_49_"  style="overflow:visible;"/>
							</clipPath>
							<g class="st26">
								<path class="st17" d="M99,295.5v40h39.8v-40H99z M111.1,307.7h-6.9v-7h6.9V307.7z"/>
								<path class="st17" d="M144,295.5v40h39.8v-40H144z M156.1,307.7h-6.9v-7h6.9V307.7z"/>
								<path class="st17" d="M121.5,250.2v40h39.8v-40H121.5z M133.6,262.4h-6.9v-7h6.9V262.4z"/>
								<path class="st17" d="M166.5,250.2v40h39.8v-40H166.5z M178.6,262.4h-6.9v-7h6.9V262.4z"/>
								<path class="st17" d="M144,205v40h39.8v-40H144z M156.1,217.2h-6.9v-7h6.9V217.2z"/>
								<path class="st17" d="M188.9,295.5v40h38v-40H188.9z M201,307.7h-6.9v-7h6.9V307.7z"/>
							</g>
						</g>
					</g>
				</g>
			</g>
		</g>
		<g>
			<defs>
				<rect id="SVGID_51_" x="345" y="185.9" width="165" height="167"/>
			</defs>
			<clipPath id="SVGID_52_">
				<use xlink:href="#SVGID_51_"  style="overflow:visible;"/>
			</clipPath>
			<g class="st27">
				<g>
					<defs>
						<rect id="SVGID_53_" x="345" y="185.9" width="165" height="167"/>
					</defs>
					<clipPath id="SVGID_54_">
						<use xlink:href="#SVGID_53_"  style="overflow:visible;"/>
					</clipPath>
					<g class="st28">
						<g>
							<defs>
								<rect id="SVGID_55_" x="345" y="185.9" width="165" height="167"/>
							</defs>
							<clipPath id="SVGID_56_">
								<use xlink:href="#SVGID_55_"  style="overflow:visible;"/>
							</clipPath>
							<g class="st29">
								<path class="st4" d="M363.9,295.5v40h39.5v-40H363.9z M375.9,307.7h-6.9v-7h6.9V307.7z"/>
								<path class="st4" d="M408.6,295.5v40h39.5v-40H408.6z M420.6,307.7h-6.9v-7h6.9V307.7z"/>
								<path class="st4" d="M386.3,250.2v40h39.5v-40H386.3z M398.3,262.4h-6.9v-7h6.9V262.4z"/>
								<path class="st4" d="M430.9,250.2v40h39.5v-40H430.9z M443,262.4h-6.9v-7h6.9V262.4z"/>
								<path class="st4" d="M408.6,205v40h39.5v-40H408.6z M420.6,217.2h-6.9v-7h6.9V217.2z"/>
								<path class="st4" d="M453.3,295.5v40h37.8v-40H453.3z M465.3,307.7h-6.9v-7h6.9V307.7z"/>
							</g>
						</g>
					</g>
				</g>
			</g>
		</g>
		<g>
			<defs>
				<rect id="SVGID_57_" x="390" y="185.9" width="165" height="167"/>
			</defs>
			<clipPath id="SVGID_58_">
				<use xlink:href="#SVGID_57_"  style="overflow:visible;"/>
			</clipPath>
			<g class="st30">
				<g>
					<defs>
						<rect id="SVGID_59_" x="390" y="185.9" width="165" height="167"/>
					</defs>
					<clipPath id="SVGID_60_">
						<use xlink:href="#SVGID_59_"  style="overflow:visible;"/>
					</clipPath>
					<g class="st31">
						<g>
							<defs>
								<rect id="SVGID_61_" x="390" y="185.9" width="165" height="167"/>
							</defs>
							<clipPath id="SVGID_62_">
								<use xlink:href="#SVGID_61_"  style="overflow:visible;"/>
							</clipPath>
							<g class="st32">
								<path class="st33" d="M408.9,295.5v40h39.5v-40H408.9z M420.9,307.7h-6.9v-7h6.9V307.7z"/>
								<path class="st33" d="M453.6,295.5v40h39.5v-40H453.6z M465.6,307.7h-6.9v-7h6.9V307.7z"/>
								<path class="st33" d="M431.3,250.2v40h39.5v-40H431.3z M443.3,262.4h-6.9v-7h6.9V262.4z"/>
								<path class="st33" d="M475.9,250.2v40h39.5v-40H475.9z M488,262.4h-6.9v-7h6.9V262.4z"/>
								<path class="st33" d="M453.6,205v40h39.5v-40H453.6z M465.6,217.2h-6.9v-7h6.9V217.2z"/>
								<path class="st33" d="M498.3,295.5v40h37.8v-40H498.3z M510.3,307.7h-6.9v-7h6.9V307.7z"/>
							</g>
						</g>
					</g>
				</g>
			</g>
		</g>
		<path class="st17" d="M231.5,271.2l107.6-0.1l0-1.3l-107.6,0.1L231.5,271.2z M337.8,274.4l8-4l-8-4L337.8,274.4z"/>
		<path class="st4" d="M232,270l129.4,154.8l-1,0.9L231,270.8L232,270z M363.1,421.6l2.1,8.7l-8.2-3.6L363.1,421.6z"/>
		<path class="st33" d="M561.5,271.2l132.2-0.1l0-1.3l-132.2,0.1L561.5,271.2z M692.4,274.4l8-4l-8-4L692.4,274.4z"/>
		<g>
			<defs>
				<rect id="SVGID_63_" x="605" y="217.9" width="44" height="45"/>
			</defs>
			<clipPath id="SVGID_64_">
				<use xlink:href="#SVGID_63_"  style="overflow:visible;"/>
			</clipPath>
			<g class="st34">
				<g>
					<defs>
						<rect id="SVGID_65_" x="605" y="217.9" width="44" height="45"/>
					</defs>
					<clipPath id="SVGID_66_">
						<use xlink:href="#SVGID_65_"  style="overflow:visible;"/>
					</clipPath>
					<g class="st35">
						<g>
							<defs>
								<rect id="SVGID_67_" x="605" y="217.9" width="44" height="45"/>
							</defs>
							<clipPath id="SVGID_68_">
								<use xlink:href="#SVGID_67_"  style="overflow:visible;"/>
							</clipPath>
							<g class="st36">
								<path class="st33" d="M638.6,231.8c-0.8-6.6-6.6-11.3-13-10.5c-5.9,0.7-10.3,5.8-10.3,11.8h5.5c0-3.5,2.8-6.3,6.2-6.3
									s6.2,2.8,6.2,6.3c0,2.2-1.1,4.2-2.9,5.4c-3.7,2.3-6,6.5-6,10.9h5.5c0-2.5,1.3-4.9,3.5-6.2
									C637,240.8,639.1,236.3,638.6,231.8z"/>
								<path class="st33" d="M629.5,253.7L629.5,253.7c-1.3-1.3-3.4-1.3-4.8,0c0,0,0,0,0,0c-0.3,0.3-0.6,0.7-0.7,1.1
									c-0.2,0.4-0.3,0.9-0.3,1.3c0,0.5,0.1,0.9,0.3,1.3c0.3,0.8,1,1.5,1.8,1.8c0.4,0.2,0.9,0.3,1.3,0.3c0.4,0,0.9-0.1,1.3-0.3
									c0.8-0.4,1.4-1,1.8-1.8c0.2-0.4,0.3-0.9,0.3-1.3c0-0.5-0.1-0.9-0.3-1.3C630,254.4,629.8,254,629.5,253.7z"/>
							</g>
						</g>
					</g>
				</g>
			</g>
		</g>
		<path class="st4" d="M562,269.9l134.5,154.6l-1,0.9L561,270.8L562,269.9z M698.2,421.4l2.2,8.7l-8.3-3.4L698.2,421.4z"/>
		<path class="st4" d="M891,270l129.5,155.8l-1,0.9L890,270.8L891,270z M1022.3,422.6l2,8.7l-8.2-3.6L1022.3,422.6z"/>
		<path class="st37" d="M117.8,110.4l0,76.6h1.3l0-76.6H117.8z M114.5,185.7l4,8l4-8H114.5z"/>
		<g>
			<defs>
				<rect id="SVGID_69_" x="74" y="125.9" width="44" height="44"/>
			</defs>
			<clipPath id="SVGID_70_">
				<use xlink:href="#SVGID_69_"  style="overflow:visible;"/>
			</clipPath>
			<g class="st38">
				<g>
					<defs>
						<rect id="SVGID_71_" x="74" y="125.9" width="44" height="44"/>
					</defs>
					<clipPath id="SVGID_72_">
						<use xlink:href="#SVGID_71_"  style="overflow:visible;"/>
					</clipPath>
					<g class="st39">
						<g>
							<defs>
								<rect id="SVGID_73_" x="74" y="125.9" width="44" height="44"/>
							</defs>
							<clipPath id="SVGID_74_">
								<use xlink:href="#SVGID_73_"  style="overflow:visible;"/>
							</clipPath>
							<g class="st40">
								<path class="st37" d="M107.6,139.5c-0.8-6.4-6.6-11-13-10.3c-5.9,0.7-10.3,5.7-10.3,11.6h5.5c0-3.4,2.8-6.2,6.2-6.2
									c3.4,0,6.2,2.8,6.2,6.2c0,2.1-1.1,4.1-2.9,5.2c-3.7,2.3-6,6.3-6,10.7h5.5c0-2.5,1.3-4.8,3.5-6
									C106,148.3,108.1,143.9,107.6,139.5z"/>
								<path class="st37" d="M98.5,160.9L98.5,160.9c-1.3-1.3-3.4-1.3-4.8,0c0,0,0,0,0,0c-0.3,0.3-0.6,0.7-0.7,1.1
									c-0.2,0.4-0.3,0.9-0.3,1.3c0,0.4,0.1,0.9,0.3,1.3c0.3,0.8,1,1.4,1.8,1.8c0.4,0.2,0.9,0.3,1.3,0.3c0.4,0,0.9-0.1,1.3-0.3
									c0.8-0.3,1.4-1,1.8-1.8c0.2-0.4,0.3-0.9,0.3-1.3c0-0.5-0.1-0.9-0.3-1.3C99,161.6,98.8,161.2,98.5,160.9z"/>
							</g>
						</g>
					</g>
				</g>
			</g>
		</g>
		<g>
			<defs>
				<rect id="SVGID_75_" x="48" y="-30.1" width="166" height="166"/>
			</defs>
			<clipPath id="SVGID_76_">
				<use xlink:href="#SVGID_75_"  style="overflow:visible;"/>
			</clipPath>
			<g class="st41">
				<g>
					<defs>
						<rect id="SVGID_77_" x="48" y="-30.1" width="166" height="166"/>
					</defs>
					<clipPath id="SVGID_78_">
						<use xlink:href="#SVGID_77_"  style="overflow:visible;"/>
					</clipPath>
					<g class="st42">
						<g>
							<defs>
								<rect id="SVGID_79_" x="48" y="-30.1" width="166" height="166"/>
							</defs>
							<clipPath id="SVGID_80_">
								<use xlink:href="#SVGID_79_"  style="overflow:visible;"/>
							</clipPath>
							<g class="st43">
								<path class="st4" d="M94.7,84c0,6.7-5.4,12.1-12.1,12.1S70.5,90.7,70.5,84s5.4-12.1,12.1-12.1S94.7,77.3,94.7,84z"/>
								<path class="st4" d="M195,84c0,6.7-5.4,12.1-12.1,12.1s-12.1-5.4-12.1-12.1s5.4-12.1,12.1-12.1S195,77.3,195,84z"/>
								<path class="st4" d="M54.9,11.4h96.8v41.5H54.9V11.4z"/>
								<path class="st4" d="M165.6,28.7H176c3.1,0,5.9,2.1,6.6,5l3.5,11.9c0,0.2,0.2,0.2,0.2,0.3h-20.6V28.7z M176,21.8h-17.3V46
									v10.4V84h6.9c0-9.5,7.8-17.3,17.3-17.3s17.3,7.8,17.3,17.3c3.8,0,6.9-3.1,6.9-6.9V59.8c0-2.2-1-4.2-2.8-5.5l-9.2-6.9
									c-1.2-0.9-2.1-2.2-2.4-3.6l-3.5-11.9C187.5,25.9,182,21.8,176,21.8z"/>
								<path class="st4" d="M151.8,84H99.9c0-9.5-7.8-17.3-17.3-17.3c-9.5,0-17.3,7.8-17.3,17.3H54.9V59.8h96.8V84z"/>
							</g>
						</g>
					</g>
				</g>
			</g>
		</g>
		<rect x="53" y="3.9" class="st44" width="99" height="52"/>
		<g>
			<defs>
				<rect id="SVGID_81_" x="56" y="4.9" width="54" height="55"/>
			</defs>
			<clipPath id="SVGID_82_">
				<use xlink:href="#SVGID_81_"  style="overflow:visible;"/>
			</clipPath>
			<g class="st45">
				<g>
					<defs>
						<rect id="SVGID_83_" x="56" y="4.9" width="54" height="55"/>
					</defs>
					<clipPath id="SVGID_84_">
						<use xlink:href="#SVGID_83_"  style="overflow:visible;"/>
					</clipPath>
					<g class="st46">
						<g>
							<defs>
								<rect id="SVGID_85_" x="56" y="4.9" width="54" height="55"/>
							</defs>
							<clipPath id="SVGID_86_">
								<use xlink:href="#SVGID_85_"  style="overflow:visible;"/>
							</clipPath>
							<g class="st47">
								<path class="st4" d="M62.2,41v13.2h12.9V41H62.2z M66.1,45h-2.3v-2.3h2.3V45z"/>
								<path class="st4" d="M76.8,41v13.2h12.9V41H76.8z M80.8,45h-2.3v-2.3h2.3V45z"/>
								<path class="st4" d="M69.5,26.1v13.2h12.9V26.1H69.5z M73.4,30.1h-2.3v-2.3h2.3V30.1z"/>
								<path class="st4" d="M84.1,26.1v13.2h12.9V26.1H84.1z M88.1,30.1h-2.3v-2.3h2.3V30.1z"/>
								<path class="st4" d="M76.8,11.2v13.2h12.9V11.2H76.8z M80.8,15.2h-2.3v-2.3h2.3V15.2z"/>
								<path class="st4" d="M91.4,41v13.2h12.4V41H91.4z M95.4,45h-2.3v-2.3h2.3V45z"/>
							</g>
						</g>
					</g>
				</g>
			</g>
		</g>
		<g>
			<defs>
				<rect id="SVGID_87_" x="71" y="4.9" width="53" height="55"/>
			</defs>
			<clipPath id="SVGID_88_">
				<use xlink:href="#SVGID_87_"  style="overflow:visible;"/>
			</clipPath>
			<g class="st48">
				<g>
					<defs>
						<rect id="SVGID_89_" x="71" y="4.9" width="53" height="55"/>
					</defs>
					<clipPath id="SVGID_90_">
						<use xlink:href="#SVGID_89_"  style="overflow:visible;"/>
					</clipPath>
					<g class="st49">
						<g>
							<defs>
								<rect id="SVGID_91_" x="71" y="4.9" width="53" height="55"/>
							</defs>
							<clipPath id="SVGID_92_">
								<use xlink:href="#SVGID_91_"  style="overflow:visible;"/>
							</clipPath>
							<g class="st50">
								<path class="st37" d="M77.1,41v13.2h12.7V41H77.1z M80.9,45h-2.2v-2.3h2.2V45z"/>
								<path class="st37" d="M91.4,41v13.2h12.7V41H91.4z M95.3,45h-2.2v-2.3h2.2V45z"/>
								<path class="st37" d="M84.3,26.1v13.2h12.7V26.1H84.3z M88.1,30.1h-2.2v-2.3h2.2V30.1z"/>
								<path class="st37" d="M98.6,26.1v13.2h12.7V26.1H98.6z M102.5,30.1h-2.2v-2.3h2.2V30.1z"/>
								<path class="st37" d="M91.4,11.2v13.2h12.7V11.2H91.4z M95.3,15.2h-2.2v-2.3h2.2V15.2z"/>
								<path class="st37" d="M105.8,41v13.2h12.1V41H105.8z M109.6,45h-2.2v-2.3h2.2V45z"/>
							</g>
						</g>
					</g>
				</g>
			</g>
		</g>
		<g>
			<defs>
				<rect id="SVGID_93_" x="100" y="4.9" width="53" height="55"/>
			</defs>
			<clipPath id="SVGID_94_">
				<use xlink:href="#SVGID_93_"  style="overflow:visible;"/>
			</clipPath>
			<g class="st51">
				<g>
					<defs>
						<rect id="SVGID_95_" x="100" y="4.9" width="53" height="55"/>
					</defs>
					<clipPath id="SVGID_96_">
						<use xlink:href="#SVGID_95_"  style="overflow:visible;"/>
					</clipPath>
					<g class="st52">
						<g>
							<defs>
								<rect id="SVGID_97_" x="100" y="4.9" width="53" height="55"/>
							</defs>
							<clipPath id="SVGID_98_">
								<use xlink:href="#SVGID_97_"  style="overflow:visible;"/>
							</clipPath>
							<g class="st53">
								<path class="st37" d="M106.1,41v13.2h12.7V41H106.1z M109.9,45h-2.2v-2.3h2.2V45z"/>
								<path class="st37" d="M120.4,41v13.2h12.7V41H120.4z M124.3,45h-2.2v-2.3h2.2V45z"/>
								<path class="st37" d="M113.3,26.1v13.2h12.7V26.1H113.3z M117.1,30.1h-2.2v-2.3h2.2V30.1z"/>
								<path class="st37" d="M127.6,26.1v13.2h12.7V26.1H127.6z M131.5,30.1h-2.2v-2.3h2.2V30.1z"/>
								<path class="st37" d="M120.4,11.2v13.2h12.7V11.2H120.4z M124.3,15.2h-2.2v-2.3h2.2V15.2z"/>
								<path class="st37" d="M134.8,41v13.2h12.1V41H134.8z M138.6,45h-2.2v-2.3h2.2V45z"/>
							</g>
						</g>
					</g>
				</g>
			</g>
		</g>
		<g>
			<defs>
				<rect id="SVGID_99_" x="85" y="4.9" width="54" height="55"/>
			</defs>
			<clipPath id="SVGID_100_">
				<use xlink:href="#SVGID_99_"  style="overflow:visible;"/>
			</clipPath>
			<g class="st54">
				<g>
					<defs>
						<rect id="SVGID_101_" x="85" y="4.9" width="54" height="55"/>
					</defs>
					<clipPath id="SVGID_102_">
						<use xlink:href="#SVGID_101_"  style="overflow:visible;"/>
					</clipPath>
					<g class="st55">
						<g>
							<defs>
								<rect id="SVGID_103_" x="85" y="4.9" width="54" height="55"/>
							</defs>
							<clipPath id="SVGID_104_">
								<use xlink:href="#SVGID_103_"  style="overflow:visible;"/>
							</clipPath>
							<g class="st56">
								<path class="st37" d="M91.2,41v13.2h12.9V41H91.2z M95.1,45h-2.3v-2.3h2.3V45z"/>
								<path class="st37" d="M105.8,41v13.2h12.9V41H105.8z M109.8,45h-2.3v-2.3h2.3V45z"/>
								<path class="st37" d="M98.5,26.1v13.2h12.9V26.1H98.5z M102.4,30.1h-2.3v-2.3h2.3V30.1z"/>
								<path class="st37" d="M113.1,26.1v13.2h12.9V26.1H113.1z M117.1,30.1h-2.3v-2.3h2.3V30.1z"/>
								<path class="st37" d="M105.8,11.2v13.2h12.9V11.2H105.8z M109.8,15.2h-2.3v-2.3h2.3V15.2z"/>
								<path class="st37" d="M120.4,41v13.2h12.4V41H120.4z M124.4,45h-2.3v-2.3h2.3V45z"/>
							</g>
						</g>
					</g>
				</g>
			</g>
		</g>
		<path class="st17" d="M238.2,536h2.7v0.7h-2.7V536z M242.8,536h2.7v0.7h-2.7V536z M247.5,536h2.7v0.7h-2.7V536z M252.2,536h2.7
			v0.7h-2.7V536z M256.8,536h2.7v0.7h-2.7V536z M261.5,536h2.7v0.7h-2.7V536z M266.2,536h2.7v0.7h-2.7V536z M270.8,536h2.7v0.7h-2.7
			V536z M275.5,536h2.7v0.7h-2.7V536z M280.2,536h2.7v0.7h-2.7V536z M284.8,536h2.7v0.7h-2.7V536z M289.5,536h2.7v0.7h-2.7V536z
			 M294.2,536h2.7v0.7h-2.7V536z M298.8,536h2.7v0.7h-2.7V536z M303.5,536h2.7v0.7h-2.7V536z M308.2,536h2.7v0.7h-2.7V536z
			 M312.8,536h2.7v0.7h-2.7V536z M317.5,536h2.7v0.7h-2.7V536z M322.2,536h2.7v0.7h-2.7V536z M326.8,536h2.7v0.7h-2.7V536z
			 M331.5,536h2.7v0.7h-2.7V536z M336.2,536h2.7v0.7h-2.7V536z M340.8,536h2.7v0.7h-2.7V536z M345.5,536h2.7v0.7h-2.7V536z
			 M350.2,536h2.7v0.7h-2.7V536z M354.8,536h2.7v0.7h-2.7V536z M359.5,536h2.7v0.7h-2.7V536z M364.2,536h2.7v0.7h-2.7V536z
			 M368.8,536h2.7v0.7h-2.7V536z M373.5,536h2.7v0.7h-2.7V536z M378.2,536h2.7v0.7h-2.7V536z M382.8,536h2.7v0.7h-2.7V536z
			 M387.5,536h2.7v0.7h-2.7V536z M392.2,536h2.7v0.7h-2.7V536z M396.8,536h2.7v0.7h-2.7V536z M401.5,536h2.7v0.7h-2.7V536z
			 M406.2,536h2.7v0.7h-2.7V536z M410.8,536h2.7v0.7h-2.7V536z M415.5,536h2.7v0.7h-2.7V536z M420.2,536h2.7v0.7h-2.7V536z
			 M424.8,536h2.7v0.7h-2.7V536z M429.5,536h2.7v0.7h-2.7V536z M434.2,536h2.7v0.7h-2.7V536z M438.8,536h2.7v0.7h-2.7V536z
			 M443.5,536h2.7v0.7h-2.7V536z M448.2,536h2.7v0.7h-2.7V536z M452.8,536h2.7v0.7h-2.7V536z M457.5,536h2.7v0.7h-2.7V536z
			 M462.2,536h2.7v0.7h-2.7V536z M466.8,536h2.7v0.7h-2.7V536z M471.5,536h2.7v0.7h-2.7V536z M476.2,536h2.7v0.7h-2.7V536z
			 M480.8,536h2.7v0.7h-2.7V536z M485.5,536h2.7v0.7h-2.7V536z M490.2,536h2.7v0.7h-2.7V536z M494.8,536h2.7v0.7h-2.7V536z
			 M499.5,536h2.7v0.7h-2.7V536z M504.2,536h2.7v0.7h-2.7V536z M508.8,536h2.7v0.7h-2.7V536z M513.5,536h2.7v0.7h-2.7V536z
			 M518.2,536h2.7v0.7h-2.7V536z M522.8,536h2.7v0.7h-2.7V536z M527.5,536h2.7v0.7h-2.7V536z M532.2,536h2.7v0.7h-2.7V536z
			 M536.8,536h2.7v0.7h-2.7V536z M541.5,536h2.7v0.7h-2.7V536z M546.2,536h2.7v0.7h-2.7V536z M550.8,536h2.7v0.7h-2.7V536z
			 M239.5,540.4l-8-4l8-4V540.4z M553.3,532.4l8,4l-8,4V532.4z"/>
		<path class="st33" d="M569.2,536h2.7v0.7h-2.7V536z M573.8,536h2.7v0.7h-2.7V536z M578.5,536h2.7v0.7h-2.7V536z M583.2,536h2.7
			v0.7h-2.7V536z M587.8,536h2.7v0.7h-2.7V536z M592.5,536h2.7v0.7h-2.7V536z M597.2,536h2.7v0.7h-2.7V536z M601.8,536h2.7v0.7h-2.7
			V536z M606.5,536h2.7v0.7h-2.7V536z M611.2,536h2.7v0.7h-2.7V536z M615.8,536h2.7v0.7h-2.7V536z M620.5,536h2.7v0.7h-2.7V536z
			 M625.2,536h2.7v0.7h-2.7V536z M629.8,536h2.7v0.7h-2.7V536z M634.5,536h2.7v0.7h-2.7V536z M639.2,536h2.7v0.7h-2.7V536z
			 M643.8,536h2.7v0.7h-2.7V536z M648.5,536h2.7v0.7h-2.7V536z M653.2,536h2.7v0.7h-2.7V536z M657.8,536h2.7v0.7h-2.7V536z
			 M662.5,536h2.7v0.7h-2.7V536z M667.2,536h2.7v0.7h-2.7V536z M671.8,536h2.7v0.7h-2.7V536z M676.5,536h2.7v0.7h-2.7V536z
			 M681.2,536h2.7v0.7h-2.7V536z M685.8,536h2.7v0.7h-2.7V536z M690.5,536h2.7v0.7h-2.7V536z M695.2,536h2.7v0.7h-2.7V536z
			 M699.8,536h2.7v0.7h-2.7V536z M704.5,536h2.7v0.7h-2.7V536z M709.2,536h2.7v0.7h-2.7V536z M713.8,536h2.7v0.7h-2.7V536z
			 M718.5,536h2.7v0.7h-2.7V536z M723.2,536h2.7v0.7h-2.7V536z M727.8,536h2.7v0.7h-2.7V536z M732.5,536h2.7v0.7h-2.7V536z
			 M737.2,536h2.7v0.7h-2.7V536z M741.8,536h2.7v0.7h-2.7V536z M746.5,536h2.7v0.7h-2.7V536z M751.2,536h2.7v0.7h-2.7V536z
			 M755.8,536h2.7v0.7h-2.7V536z M760.5,536h2.7v0.7h-2.7V536z M765.2,536h2.7v0.7h-2.7V536z M769.8,536h2.7v0.7h-2.7V536z
			 M774.5,536h2.7v0.7h-2.7V536z M779.2,536h2.7v0.7h-2.7V536z M783.8,536h2.7v0.7h-2.7V536z M788.5,536h2.7v0.7h-2.7V536z
			 M793.2,536h2.7v0.7h-2.7V536z M797.8,536h2.7v0.7h-2.7V536z M802.5,536h2.7v0.7h-2.7V536z M807.2,536h2.7v0.7h-2.7V536z
			 M811.8,536h2.7v0.7h-2.7V536z M816.5,536h2.7v0.7h-2.7V536z M821.2,536h2.7v0.7h-2.7V536z M825.8,536h2.7v0.7h-2.7V536z
			 M830.5,536h2.7v0.7h-2.7V536z M835.2,536h2.7v0.7h-2.7V536z M839.8,536h2.7v0.7h-2.7V536z M844.5,536h2.7v0.7h-2.7V536z
			 M849.2,536h2.7v0.7h-2.7V536z M853.8,536h2.7v0.7h-2.7V536z M858.5,536h2.7v0.7h-2.7V536z M863.2,536h2.7v0.7h-2.7V536z
			 M867.8,536h2.7v0.7h-2.7V536z M872.5,536h2.7v0.7h-2.7V536z M877.2,536h2.7v0.7h-2.7V536z M881.8,536h2.7v0.7h-2.7V536z
			 M570.5,540.4l-8-4l8-4V540.4z M884.5,532.4l8,4l-8,4V532.4z"/>
		<path class="st37" d="M900.2,536h2.7v0.7h-2.7V536z M904.8,536h2.7v0.7h-2.7V536z M909.5,536h2.7v0.7h-2.7V536z M914.2,536h2.7
			v0.7h-2.7V536z M918.8,536h2.7v0.7h-2.7V536z M923.5,536h2.7v0.7h-2.7V536z M928.2,536h2.7v0.7h-2.7V536z M932.8,536h2.7v0.7h-2.7
			V536z M937.5,536h2.7v0.7h-2.7V536z M942.2,536h2.7v0.7h-2.7V536z M946.8,536h2.7v0.7h-2.7V536z M951.5,536h2.7v0.7h-2.7V536z
			 M956.2,536h2.7v0.7h-2.7V536z M960.8,536h2.7v0.7h-2.7V536z M965.5,536h2.7v0.7h-2.7V536z M970.2,536h2.7v0.7h-2.7V536z
			 M974.8,536h2.7v0.7h-2.7V536z M979.5,536h2.7v0.7h-2.7V536z M984.2,536h2.7v0.7h-2.7V536z M988.8,536h2.7v0.7h-2.7V536z
			 M993.5,536h2.7v0.7h-2.7V536z M998.2,536h2.7v0.7h-2.7V536z M1002.8,536h2.7v0.7h-2.7V536z M1007.5,536h2.7v0.7h-2.7V536z
			 M1012.2,536h2.7v0.7h-2.7V536z M1016.8,536h2.7v0.7h-2.7V536z M1021.5,536h2.7v0.7h-2.7V536z M1026.2,536h2.7v0.7h-2.7V536z
			 M1030.8,536h2.7v0.7h-2.7V536z M1035.5,536h2.7v0.7h-2.7V536z M1040.2,536h2.7v0.7h-2.7V536z M1044.8,536h2.7v0.7h-2.7V536z
			 M1049.5,536h2.7v0.7h-2.7V536z M1054.2,536h2.7v0.7h-2.7V536z M1058.8,536h2.7v0.7h-2.7V536z M1063.5,536h2.7v0.7h-2.7V536z
			 M1068.2,536h2.7v0.7h-2.7V536z M1072.8,536h2.7v0.7h-2.7V536z M1077.5,536h2.7v0.7h-2.7V536z M1082.2,536h2.7v0.7h-2.7V536z
			 M1086.8,536h2.7v0.7h-2.7V536z M1091.5,536h2.7v0.7h-2.7V536z M1096.2,536h2.7v0.7h-2.7V536z M1100.8,536h2.7v0.7h-2.7V536z
			 M1105.5,536h2.7v0.7h-2.7V536z M1110.2,536h2.7v0.7h-2.7V536z M1114.8,536h2.7v0.7h-2.7V536z M1119.5,536h2.7v0.7h-2.7V536z
			 M1124.2,536h2.7v0.7h-2.7V536z M1128.8,536h2.7v0.7h-2.7V536z M1133.5,536h2.7v0.7h-2.7V536z M1138.2,536h2.7v0.7h-2.7V536z
			 M1142.8,536h2.7v0.7h-2.7V536z M1147.5,536h2.7v0.7h-2.7V536z M1152.2,536h2.7v0.7h-2.7V536z M1156.8,536h2.7v0.7h-2.7V536z
			 M1161.5,536h2.7v0.7h-2.7V536z M1166.2,536h2.7v0.7h-2.7V536z M1170.8,536h2.7v0.7h-2.7V536z M1175.5,536h2.7v0.7h-2.7V536z
			 M1180.2,536h2.7v0.7h-2.7V536z M1184.8,536h2.7v0.7h-2.7V536z M1189.5,536h2.7v0.7h-2.7V536z M1194.2,536h2.7v0.7h-2.7V536z
			 M1198.8,536h2.7v0.7h-2.7V536z M1203.5,536h2.7v0.7h-2.7V536z M1208.2,536h2.7v0.7h-2.7V536z M1212.8,536h2.7v0.7h-2.7V536z
			 M901.5,540.4l-8-4l8-4V540.4z M1216,532.4l8,4l-8,4V532.4z"/>
		<path class="st57" d="M230.5,502.4v27.8"/>
		<path class="st58" d="M230.5,197.4v322"/>
		<path class="st58" d="M561.5,193.4l0,321.9"/>
		<path class="st58" d="M889.5,193.4l0,322"/>
	</g>
</g>
</svg>
